<svg xmlns="http://www.w3.org/2000/svg" version="1.1" xmlns:xlink="http://www.w3.org/1999/xlink" xmlns:svgjs="http://svgjs.dev/svgjs" viewBox="0 0 800 800" opacity="0.54" width="800" height="800"><g stroke-width="1.75" stroke="hsla(37, 91%, 55%, 1.00)" fill="none"><rect width="80" height="61.53846153846154" x="0" y="0"></rect><rect width="80" height="61.53846153846154" x="80" y="0"></rect><rect width="80" height="61.53846153846154" x="160" y="0"></rect><rect width="80" height="61.53846153846154" x="240" y="0"></rect><rect width="80" height="61.53846153846154" x="320" y="0"></rect><rect width="80" height="61.53846153846154" x="400" y="0"></rect><rect width="80" height="61.53846153846154" x="480" y="0"></rect><rect width="80" height="61.53846153846154" x="560" y="0"></rect><rect width="80" height="61.53846153846154" x="640" y="0"></rect><rect width="80" height="61.53846153846154" x="720" y="0"></rect><rect width="80" height="61.53846153846154" x="800" y="0"></rect><rect width="80" height="61.53846153846154" x="0" y="61.53846153846154"></rect><rect width="80" height="61.53846153846154" x="80" y="61.53846153846154"></rect><rect width="80" height="61.53846153846154" x="160" y="61.53846153846154"></rect><rect width="80" height="61.53846153846154" x="240" y="61.53846153846154"></rect><rect width="80" height="61.53846153846154" x="320" y="61.53846153846154"></rect><rect width="80" height="61.53846153846154" x="400" y="61.53846153846154"></rect><rect width="80" height="61.53846153846154" x="480" y="61.53846153846154"></rect><rect width="80" height="61.53846153846154" x="560" y="61.53846153846154"></rect><rect width="80" height="61.53846153846154" x="640" y="61.53846153846154"></rect><rect width="80" height="61.53846153846154" x="720" y="61.53846153846154"></rect><rect width="80" height="61.53846153846154" x="800" y="61.53846153846154"></rect><rect width="80" height="61.53846153846154" x="0" y="123.07692307692308"></rect><rect width="80" height="61.53846153846154" x="80" y="123.07692307692308"></rect><rect width="80" height="61.53846153846154" x="160" y="123.07692307692308"></rect><rect width="80" height="61.53846153846154" x="240" y="123.07692307692308"></rect><rect width="80" height="61.53846153846154" x="320" y="123.07692307692308"></rect><rect width="80" height="61.53846153846154" x="400" y="123.07692307692308"></rect><rect width="80" height="61.53846153846154" x="480" y="123.07692307692308"></rect><rect width="80" height="61.53846153846154" x="560" y="123.07692307692308"></rect><rect width="80" height="61.53846153846154" x="640" y="123.07692307692308"></rect><rect width="80" height="61.53846153846154" x="720" y="123.07692307692308"></rect><rect width="80" height="61.53846153846154" x="800" y="123.07692307692308"></rect><rect width="80" height="61.53846153846154" x="0" y="184.6153846153846"></rect><rect width="80" height="61.53846153846154" x="80" y="184.6153846153846"></rect><rect width="80" height="61.53846153846154" x="160" y="184.6153846153846"></rect><rect width="80" height="61.53846153846154" x="240" y="184.6153846153846"></rect><rect width="80" height="61.53846153846154" x="320" y="184.6153846153846"></rect><rect width="80" height="61.53846153846154" x="400" y="184.6153846153846"></rect><rect width="80" height="61.53846153846154" x="480" y="184.6153846153846"></rect><rect width="80" height="61.53846153846154" x="560" y="184.6153846153846"></rect><rect width="80" height="61.53846153846154" x="640" y="184.6153846153846"></rect><rect width="80" height="61.53846153846154" x="720" y="184.6153846153846"></rect><rect width="80" height="61.53846153846154" x="800" y="184.6153846153846"></rect><rect width="80" height="61.53846153846154" x="0" y="246.15384615384616"></rect><rect width="80" height="61.53846153846154" x="80" y="246.15384615384616"></rect><rect width="80" height="61.53846153846154" x="160" y="246.15384615384616"></rect><rect width="80" height="61.53846153846154" x="240" y="246.15384615384616"></rect><rect width="80" height="61.53846153846154" x="320" y="246.15384615384616"></rect><rect width="80" height="61.53846153846154" x="400" y="246.15384615384616"></rect><rect width="80" height="61.53846153846154" x="480" y="246.15384615384616"></rect><rect width="80" height="61.53846153846154" x="560" y="246.15384615384616"></rect><rect width="80" height="61.53846153846154" x="640" y="246.15384615384616"></rect><rect width="80" height="61.53846153846154" x="720" y="246.15384615384616"></rect><rect width="80" height="61.53846153846154" x="800" y="246.15384615384616"></rect><rect width="80" height="61.53846153846154" x="0" y="307.6923076923077"></rect><rect width="80" height="61.53846153846154" x="80" y="307.6923076923077"></rect><rect width="80" height="61.53846153846154" x="160" y="307.6923076923077"></rect><rect width="80" height="61.53846153846154" x="240" y="307.6923076923077"></rect><rect width="80" height="61.53846153846154" x="320" y="307.6923076923077"></rect><rect width="80" height="61.53846153846154" x="400" y="307.6923076923077"></rect><rect width="80" height="61.53846153846154" x="480" y="307.6923076923077"></rect><rect width="80" height="61.53846153846154" x="560" y="307.6923076923077"></rect><rect width="80" height="61.53846153846154" x="640" y="307.6923076923077"></rect><rect width="80" height="61.53846153846154" x="720" y="307.6923076923077"></rect><rect width="80" height="61.53846153846154" x="800" y="307.6923076923077"></rect><rect width="80" height="61.53846153846154" x="0" y="369.2307692307692"></rect><rect width="80" height="61.53846153846154" x="80" y="369.2307692307692"></rect><rect width="80" height="61.53846153846154" x="160" y="369.2307692307692"></rect><rect width="80" height="61.53846153846154" x="240" y="369.2307692307692"></rect><rect width="80" height="61.53846153846154" x="320" y="369.2307692307692"></rect><rect width="80" height="61.53846153846154" x="400" y="369.2307692307692"></rect><rect width="80" height="61.53846153846154" x="480" y="369.2307692307692"></rect><rect width="80" height="61.53846153846154" x="560" y="369.2307692307692"></rect><rect width="80" height="61.53846153846154" x="640" y="369.2307692307692"></rect><rect width="80" height="61.53846153846154" x="720" y="369.2307692307692"></rect><rect width="80" height="61.53846153846154" x="800" y="369.2307692307692"></rect><rect width="80" height="61.53846153846154" x="0" y="430.7692307692308"></rect><rect width="80" height="61.53846153846154" x="80" y="430.7692307692308"></rect><rect width="80" height="61.53846153846154" x="160" y="430.7692307692308"></rect><rect width="80" height="61.53846153846154" x="240" y="430.7692307692308"></rect><rect width="80" height="61.53846153846154" x="320" y="430.7692307692308"></rect><rect width="80" height="61.53846153846154" x="400" y="430.7692307692308"></rect><rect width="80" height="61.53846153846154" x="480" y="430.7692307692308"></rect><rect width="80" height="61.53846153846154" x="560" y="430.7692307692308"></rect><rect width="80" height="61.53846153846154" x="640" y="430.7692307692308"></rect><rect width="80" height="61.53846153846154" x="720" y="430.7692307692308"></rect><rect width="80" height="61.53846153846154" x="800" y="430.7692307692308"></rect><rect width="80" height="61.53846153846154" x="0" y="492.3076923076923"></rect><rect width="80" height="61.53846153846154" x="80" y="492.3076923076923"></rect><rect width="80" height="61.53846153846154" x="160" y="492.3076923076923"></rect><rect width="80" height="61.53846153846154" x="240" y="492.3076923076923"></rect><rect width="80" height="61.53846153846154" x="320" y="492.3076923076923"></rect><rect width="80" height="61.53846153846154" x="400" y="492.3076923076923"></rect><rect width="80" height="61.53846153846154" x="480" y="492.3076923076923"></rect><rect width="80" height="61.53846153846154" x="560" y="492.3076923076923"></rect><rect width="80" height="61.53846153846154" x="640" y="492.3076923076923"></rect><rect width="80" height="61.53846153846154" x="720" y="492.3076923076923"></rect><rect width="80" height="61.53846153846154" x="800" y="492.3076923076923"></rect><rect width="80" height="61.53846153846154" x="0" y="553.8461538461538"></rect><rect width="80" height="61.53846153846154" x="80" y="553.8461538461538"></rect><rect width="80" height="61.53846153846154" x="160" y="553.8461538461538"></rect><rect width="80" height="61.53846153846154" x="240" y="553.8461538461538"></rect><rect width="80" height="61.53846153846154" x="320" y="553.8461538461538"></rect><rect width="80" height="61.53846153846154" x="400" y="553.8461538461538"></rect><rect width="80" height="61.53846153846154" x="480" y="553.8461538461538"></rect><rect width="80" height="61.53846153846154" x="560" y="553.8461538461538"></rect><rect width="80" height="61.53846153846154" x="640" y="553.8461538461538"></rect><rect width="80" height="61.53846153846154" x="720" y="553.8461538461538"></rect><rect width="80" height="61.53846153846154" x="800" y="553.8461538461538"></rect><rect width="80" height="61.53846153846154" x="0" y="615.3846153846154"></rect><rect width="80" height="61.53846153846154" x="80" y="615.3846153846154"></rect><rect width="80" height="61.53846153846154" x="160" y="615.3846153846154"></rect><rect width="80" height="61.53846153846154" x="240" y="615.3846153846154"></rect><rect width="80" height="61.53846153846154" x="320" y="615.3846153846154"></rect><rect width="80" height="61.53846153846154" x="400" y="615.3846153846154"></rect><rect width="80" height="61.53846153846154" x="480" y="615.3846153846154"></rect><rect width="80" height="61.53846153846154" x="560" y="615.3846153846154"></rect><rect width="80" height="61.53846153846154" x="640" y="615.3846153846154"></rect><rect width="80" height="61.53846153846154" x="720" y="615.3846153846154"></rect><rect width="80" height="61.53846153846154" x="800" y="615.3846153846154"></rect><rect width="80" height="61.53846153846154" x="0" y="676.9230769230769"></rect><rect width="80" height="61.53846153846154" x="80" y="676.9230769230769"></rect><rect width="80" height="61.53846153846154" x="160" y="676.9230769230769"></rect><rect width="80" height="61.53846153846154" x="240" y="676.9230769230769"></rect><rect width="80" height="61.53846153846154" x="320" y="676.9230769230769"></rect><rect width="80" height="61.53846153846154" x="400" y="676.9230769230769"></rect><rect width="80" height="61.53846153846154" x="480" y="676.9230769230769"></rect><rect width="80" height="61.53846153846154" x="560" y="676.9230769230769"></rect><rect width="80" height="61.53846153846154" x="640" y="676.9230769230769"></rect><rect width="80" height="61.53846153846154" x="720" y="676.9230769230769"></rect><rect width="80" height="61.53846153846154" x="800" y="676.9230769230769"></rect><rect width="80" height="61.53846153846154" x="0" y="738.4615384615385"></rect><rect width="80" height="61.53846153846154" x="80" y="738.4615384615385"></rect><rect width="80" height="61.53846153846154" x="160" y="738.4615384615385"></rect><rect width="80" height="61.53846153846154" x="240" y="738.4615384615385"></rect><rect width="80" height="61.53846153846154" x="320" y="738.4615384615385"></rect><rect width="80" height="61.53846153846154" x="400" y="738.4615384615385"></rect><rect width="80" height="61.53846153846154" x="480" y="738.4615384615385"></rect><rect width="80" height="61.53846153846154" x="560" y="738.4615384615385"></rect><rect width="80" height="61.53846153846154" x="640" y="738.4615384615385"></rect><rect width="80" height="61.53846153846154" x="720" y="738.4615384615385"></rect><rect width="80" height="61.53846153846154" x="800" y="738.4615384615385"></rect><rect width="80" height="61.53846153846154" x="0" y="800"></rect><rect width="80" height="61.53846153846154" x="80" y="800"></rect><rect width="80" height="61.53846153846154" x="160" y="800"></rect><rect width="80" height="61.53846153846154" x="240" y="800"></rect><rect width="80" height="61.53846153846154" x="320" y="800"></rect><rect width="80" height="61.53846153846154" x="400" y="800"></rect><rect width="80" height="61.53846153846154" x="480" y="800"></rect><rect width="80" height="61.53846153846154" x="560" y="800"></rect><rect width="80" height="61.53846153846154" x="640" y="800"></rect><rect width="80" height="61.53846153846154" x="720" y="800"></rect><rect width="80" height="61.53846153846154" x="800" y="800"></rect></g></svg>